<svg version="1" xmlns="http://www.w3.org/2000/svg" width="682.667" height="682.667" viewBox="0 0 512.000000 512.000000"><path d="M247.5 35.2c-.3.7-.4 14.1-.3 29.8l.3 28.5h17v-59l-8.3-.3c-6.1-.2-8.4.1-8.7 1zM144.8 51.6c-3.8 1.9-6.8 3.6-6.8 3.9 0 1 25 50.5 25.5 50.5 1 0 14.5-7 14.5-7.5 0-1.3-25.1-50.5-25.8-50.5-.4.1-3.7 1.7-7.4 3.6zM346.4 73.1c-6.9 13.8-12.4 25.2-12.2 25.4.2.1 3.6 1.9 7.5 3.9l7.3 3.6 12.5-25c6.9-13.7 12.5-25.3 12.5-25.8 0-.8-12.4-7.2-14-7.2-.6 0-6.6 11.3-13.6 25.1zM51.2 93.7c-3.4 2.7-6.1 5.1-6.2 5.4 0 .4 7.6 10.1 16.8 21.7l16.9 21 6.6-5.3 6.7-5.3-16.8-21c-9.2-11.6-17-21.1-17.3-21.1-.3-.1-3.4 2-6.7 4.6zM436.8 110.2l-16.8 21 6.7 5.3 6.6 5.3 16.9-21c9.2-11.6 16.8-21.3 16.7-21.7 0-.8-10.4-9-12.1-9.6-.8-.2-8.3 8.4-18 20.7zM233.5 112c-68.8 7.9-142.2 47.5-206.1 111.4C7.2 243.7 0 252.2 0 256c0 3.8 7.2 12.3 27.4 32.6 60.1 60.1 126.4 97.6 193.3 109.5 18.2 3.3 53 3.3 70.8 0 66.7-12.1 131.9-48.8 191.1-107.6 21.9-21.8 29.4-30.6 29.4-34.5 0-3.9-7.4-12.6-28.4-33.5-59.9-59.6-126.1-97-192.1-108.5-13.7-2.5-44.7-3.5-58-2zm50.5 19.4c49 11.2 85.9 48.6 97.1 98.1 2.9 13.1 3.2 38.6.5 51-5.8 27-17.9 48.8-37 67.3-18.3 17.6-38.9 28.5-64.6 33.9-11.7 2.4-36.3 2.4-48 0-26.6-5.6-47.3-16.7-66.1-35.6-25.3-25.2-37.3-54.4-37.3-90.1 0-17 1.4-26 6.4-41.2 9.6-28.7 30.9-54.5 57.7-69.8 13.5-7.8 31.2-13.8 46.8-15.9 11.3-1.6 32.4-.5 44.5 2.3zm-138.6 30.3C133.1 176.2 124 192.6 118 211c-5.7 17.5-6.5 23.1-6.5 45s.8 27.5 6.5 45c6 18.4 15.1 34.8 27.5 49.3l5.8 6.9-4.4-2.2c-26.6-13.5-62-37.9-87.9-60.7-13.5-12-38-36.6-38-38.3 0-1.7 24.4-26.3 38-38.3 23.4-20.6 52.4-41 79.5-56.1 6.6-3.6 12.1-6.6 12.3-6.6.2 0-2.3 3-5.4 6.7zm234.6 3.6c21.6 12.4 44.9 28.7 65.5 45.8 12.2 10.1 45.5 43 45.5 44.9 0 1.9-33.3 34.8-45.5 44.9-24 19.9-50 37.6-76 51.7l-8.9 4.8 6.6-8c16.1-19.5 26.2-40.4 31.5-65.4 2.6-12.1 2.6-43.9 0-56-5.3-25-15.4-46-31.4-65.3l-6.5-7.8 4.4 2.2c2.4 1.2 9 4.9 14.8 8.2z"/><path d="M211.4 153.6c-1.2.3-5.2 3.6-8.8 7.4l-6.6 6.8v21.8l-14.2 3.4c-11.5 2.8-14.8 4-17 6.2l-2.8 2.6v31.8l-6.1 2.9c-11.2 5.4-10.9 4.6-10.9 27.9 0 17.5.3 20.4 1.8 22.3 1.1 1.4 5.7 3.6 12.7 6l11 3.8.3 11.6.3 11.6 6.8 6.7 6.9 6.6h15.7l7.9 12c7.2 11 8.2 12.1 12 13.1 2.2.6 8.1.9 12.9.7l8.8-.4 6.9-6.9 7-6.9 7 6.9 6.9 6.9 8.8.4c4.8.2 10.7-.1 12.9-.7 3.8-1 4.8-2.1 12-13.1l7.9-12h15.7l6.9-6.6 6.8-6.7.3-11.6.3-11.6 11-3.8c7-2.4 11.6-4.6 12.7-6 1.5-1.9 1.8-4.8 1.8-21.4 0-12.4-.4-20.1-1.2-21.7-.7-1.6-3.7-3.9-8.4-6.3l-7.4-3.8v-15.6c0-13.8-.2-15.9-1.9-18-1-1.3-8.7-5.8-17-9.9l-15.1-7.4v-14.8l-7-7.2-6.9-7.1h-32l-7.1 7-7 6.9-7-6.9-7.1-7-14.2-.2c-7.8 0-15.2.1-16.3.3zM62.2 390.7c-9 11.2-16.5 20.9-16.7 21.6-.4 1.1 8.9 9.2 11.7 10.2.8.2 8.3-8.4 18-20.6l16.7-21.1-5.7-4.6c-3.1-2.5-6.1-4.9-6.7-5.2-.6-.4-8.2 8.3-17.3 19.7zM427.1 375.1c-3.8 3.2-6 5.6-5.7 6.5.3.7 7.8 10.4 16.6 21.4 11.2 13.9 16.5 19.8 17.4 19.3 3-1.9 11.5-8.9 11.6-9.6 0-.6-28-36.2-32.9-41.9-.4-.4-3.5 1.5-7 4.3zM150.5 431c-6.9 13.7-12.5 25.3-12.5 25.8 0 .8 12.4 7.2 14 7.2.8 0 26-48.9 26-50.5 0-.5-13.5-7.5-14.5-7.5-.3 0-6.1 11.2-13 25zM341.5 409.7c-3.8 1.9-7.1 3.7-7.3 3.8-.6.6 24.9 50.5 25.8 50.5 1.6 0 14-6.4 14-7.2 0-.9-24.9-50.8-25.3-50.8-.1.1-3.3 1.7-7.2 3.7zM247.5 419.2c-.3.7-.4 14.1-.3 29.8l.3 28.5h17v-59l-8.3-.3c-6.1-.2-8.4.1-8.7 1z"/></svg>